<svg width="34" height="34" viewBox="0 0 34 34" fill="none" xmlns="http://www.w3.org/2000/svg">
<g clip-path="url(#clip0_37_76)">
<path d="M33.0637 9.43647L30.0024 12.4978C29.6903 12.8099 29.1856 12.8099 28.8735 12.4978L21.5024 5.12671C21.1903 4.8146 21.1903 4.30991 21.5024 3.9978L24.5637 0.936474C25.8055 -0.305322 27.8243 -0.305322 29.0727 0.936474L33.0637 4.92749C34.3122 6.16928 34.3122 8.18803 33.0637 9.43647ZM18.8727 6.62749L1.43443 24.0658L0.0266217 32.1341C-0.165956 33.2232 0.783653 34.1661 1.87272 33.9802L9.94107 32.5657L27.3794 15.1275C27.6915 14.8154 27.6915 14.3107 27.3794 13.9986L20.0083 6.62749C19.6895 6.31538 19.1848 6.31538 18.8727 6.62749ZM8.24107 22.5716C7.87584 22.2064 7.87584 21.622 8.24107 21.2568L18.4676 11.0302C18.8329 10.665 19.4172 10.665 19.7825 11.0302C20.1477 11.3955 20.1477 11.9798 19.7825 12.3451L9.55592 22.5716C9.19068 22.9368 8.60631 22.9368 8.24107 22.5716ZM5.84381 28.1564H9.03131V30.5669L4.74811 31.3173L2.68287 29.2521L3.43326 24.9689H5.84381V28.1564Z" fill="white"/>
</g>
<defs>
<clipPath id="clip0_37_76">
<rect width="34" height="34" fill="white"/>
</clipPath>
</defs>
</svg>
