<svg width="34" height="34" viewBox="0 0 34 34" fill="none" xmlns="http://www.w3.org/2000/svg">
<path d="M32.9375 8.49996V9.56246C32.9375 9.70335 32.8815 9.83848 32.7819 9.93811C32.6823 10.0377 32.5471 10.0937 32.4062 10.0937H30.8125V10.8906C30.8125 11.3307 30.4557 11.6875 30.0156 11.6875H3.98438C3.5443 11.6875 3.1875 11.3307 3.1875 10.8906V10.0937H1.59375C1.45285 10.0937 1.31773 10.0377 1.2181 9.93811C1.11847 9.83848 1.0625 9.70335 1.0625 9.56246V8.49996C1.0625 8.39486 1.09368 8.29212 1.15208 8.20474C1.21049 8.11736 1.2935 8.04927 1.39061 8.00908L16.7969 2.16533C16.9269 2.11147 17.0731 2.11147 17.2031 2.16533L32.6094 8.00908C32.7065 8.04927 32.7895 8.11736 32.8479 8.20474C32.9063 8.29212 32.9375 8.39486 32.9375 8.49996ZM31.3438 28.6875H2.65625C1.77604 28.6875 1.0625 29.401 1.0625 30.2812V31.3437C1.0625 31.4846 1.11847 31.6197 1.2181 31.7194C1.31773 31.819 1.45285 31.875 1.59375 31.875H32.4062C32.5471 31.875 32.6823 31.819 32.7819 31.7194C32.8815 31.6197 32.9375 31.4846 32.9375 31.3437V30.2812C32.9375 29.401 32.224 28.6875 31.3438 28.6875ZM6.375 12.75V25.5H3.98438C3.5443 25.5 3.1875 25.8568 3.1875 26.2968V27.625H30.8125V26.2968C30.8125 25.8568 30.4557 25.5 30.0156 25.5H27.625V12.75H23.375V25.5H19.125V12.75H14.875V25.5H10.625V12.75H6.375Z" fill="white"/>
</svg>
