<svg width="34" height="34" viewBox="0 0 34 34" fill="none" xmlns="http://www.w3.org/2000/svg">
<g clip-path="url(#clip0_37_69)">
<path d="M23.2239 6.55223C23.2239 3.0901 20.4173 0.283569 16.9552 0.283569C13.4931 0.283569 10.6866 3.0901 10.6866 6.55223C10.6866 10.0144 13.4931 12.8209 16.9552 12.8209C20.4173 12.8209 23.2239 10.0144 23.2239 6.55223ZM15.4919 16.027C11.6177 13.6554 5.34253 13.0037 2.1847 12.8241C1.12359 12.7641 0.2388 13.5725 0.2388 14.5931V29.1416C0.2388 30.0773 0.99561 30.8576 1.96856 30.9079C4.81949 31.0574 10.5873 31.6053 14.5738 33.6132C15.1856 33.9214 15.9111 33.5016 15.9111 32.8381V16.7754C15.9104 16.4704 15.7596 16.1909 15.4919 16.027ZM31.7257 12.8241C28.5686 13.0031 22.2927 13.6554 18.4192 16.027C18.1515 16.1909 18.0006 16.4815 18.0006 16.7865V32.8362C18.0006 33.5016 18.7281 33.9221 19.3419 33.6132C23.3277 31.6073 29.0922 31.0594 31.9425 30.9099C32.9155 30.8589 33.6723 30.0786 33.6723 29.1429V14.5931C33.6716 13.5725 32.7868 12.7641 31.7257 12.8241Z" fill="white"/>
</g>
<defs>
<clipPath id="clip0_37_69">
<rect width="33.4328" height="33.4328" fill="white" transform="translate(0.2388 0.283569)"/>
</clipPath>
</defs>
</svg>
