<svg aria-hidden="true" style="position: absolute; width: 0; height: 0; overflow: hidden;" version="1.1" xmlns="http://www.w3.org/2000/svg" xmlns:xlink="http://www.w3.org/1999/xlink">
<defs>
<symbol id="icon-logo-book-open" viewBox="0 0 37 32">
<path fill="#28a745" style="fill: var(--color1, #28a745)" d="M33.831 2.003c-3.419 0.194-10.215 0.902-14.41 3.474-0.29 0.178-0.454 0.493-0.454 0.823v22.742c0 0.722 0.788 1.178 1.453 0.843 4.316-2.176 10.559-2.77 13.645-2.932 1.054-0.056 1.873-0.902 1.873-1.916v-21.115c0.001-1.107-0.958-1.984-2.107-1.919zM16.517 5.478c-4.195-2.572-10.991-3.279-14.41-3.474-1.149-0.065-2.108 0.812-2.108 1.919v21.116c0 1.015 0.819 1.861 1.873 1.916 3.088 0.162 9.333 0.757 13.65 2.934 0.663 0.334 1.448-0.121 1.448-0.841v-22.758c0-0.331-0.163-0.634-0.454-0.812z"></path>
</symbol>
<symbol id="icon-facebook" viewBox="0 0 32 32">
<path d="M31.5 16.343c0-8.563-6.938-15.5-15.5-15.5s-15.5 6.938-15.5 15.5c0 7.75 5.625 14.188 13.063 15.312v-10.812h-3.938v-4.5h3.938v-3.375c0-3.875 2.313-6.063 5.812-6.063 1.75 0 3.5 0.313 3.5 0.313v3.813h-1.937c-1.938 0-2.562 1.187-2.562 2.438v2.875h4.313l-0.688 4.5h-3.625v10.812c7.437-1.125 13.125-7.562 13.125-15.312z"></path>
</symbol>
<symbol id="icon-pencil" viewBox="0 0 32 32">
<path d="M31.119 8.881l-2.881 2.881c-0.294 0.294-0.769 0.294-1.063 0l-6.938-6.938c-0.294-0.294-0.294-0.769 0-1.063l2.881-2.881c1.169-1.169 3.069-1.169 4.244 0l3.756 3.756c1.175 1.169 1.175 3.069 0 4.244zM17.763 6.238l-16.413 16.413-1.325 7.594c-0.181 1.025 0.713 1.912 1.738 1.738l7.594-1.331 16.413-16.412c0.294-0.294 0.294-0.769 0-1.063l-6.938-6.938c-0.3-0.294-0.775-0.294-1.069 0zM7.756 21.244c-0.344-0.344-0.344-0.894 0-1.237l9.625-9.625c0.344-0.344 0.894-0.344 1.238 0s0.344 0.894 0 1.238l-9.625 9.625c-0.344 0.344-0.894 0.344-1.237 0zM5.5 26.5h3v2.269l-4.031 0.706-1.944-1.944 0.706-4.031h2.269v3z"></path>
</symbol>
<symbol id="icon-university" viewBox="0 0 32 32">
<path d="M31 8v1c0 0.133-0.053 0.26-0.146 0.354s-0.221 0.146-0.354 0.146h-1.5v0.75c0 0.414-0.336 0.75-0.75 0.75h-24.5c-0.414 0-0.75-0.336-0.75-0.75v-0.75h-1.5c-0.133 0-0.26-0.053-0.354-0.146s-0.146-0.221-0.146-0.354v-1c0-0.099 0.029-0.196 0.084-0.278s0.133-0.146 0.224-0.184l14.5-5.5c0.122-0.051 0.26-0.051 0.382 0l14.5 5.5c0.091 0.038 0.169 0.102 0.224 0.184s0.084 0.179 0.084 0.278zM29.5 27h-27c-0.828 0-1.5 0.672-1.5 1.5v1c0 0.133 0.053 0.26 0.146 0.354s0.221 0.146 0.354 0.146h29c0.133 0 0.26-0.053 0.354-0.146s0.146-0.221 0.146-0.354v-1c0-0.828-0.672-1.5-1.5-1.5zM6 12v12h-2.25c-0.414 0-0.75 0.336-0.75 0.75v1.25h26v-1.25c0-0.414-0.336-0.75-0.75-0.75h-2.25v-12h-4v12h-4v-12h-4v12h-4v-12h-4z"></path>
</symbol>
<symbol id="icon-human-open" viewBox="0 0 32 32">
<path d="M21.858 6.167c0-3.258-2.642-5.9-5.9-5.9s-5.9 2.641-5.9 5.9c0 3.259 2.641 5.9 5.9 5.9s5.9-2.641 5.9-5.9zM14.581 15.084c-3.646-2.232-9.552-2.845-12.524-3.014-0.999-0.056-1.831 0.704-1.831 1.665v13.693c0 0.881 0.712 1.615 1.628 1.662 2.683 0.141 8.112 0.656 11.864 2.546 0.576 0.29 1.259-0.105 1.259-0.73v-15.118c-0.001-0.287-0.143-0.55-0.395-0.704zM29.859 12.070c-2.971 0.168-8.878 0.782-12.524 3.014-0.252 0.154-0.394 0.428-0.394 0.715v15.106c0 0.626 0.685 1.022 1.262 0.731 3.751-1.888 9.177-2.404 11.859-2.544 0.916-0.048 1.628-0.782 1.628-1.663v-13.694c-0.001-0.961-0.833-1.721-1.832-1.665z"></path>
</symbol>
<symbol id="icon-twitter" viewBox="0 0 32 32">
<path d="M32 7.075c-1.175 0.525-2.444 0.875-3.769 1.031 1.356-0.813 2.394-2.1 2.887-3.631-1.269 0.75-2.675 1.3-4.169 1.594-1.2-1.275-2.906-2.069-4.794-2.069-3.625 0-6.563 2.938-6.563 6.563 0 0.512 0.056 1.012 0.169 1.494-5.456-0.275-10.294-2.888-13.531-6.862-0.563 0.969-0.887 2.1-0.887 3.3 0 2.275 1.156 4.287 2.919 5.463-1.075-0.031-2.087-0.331-2.975-0.819 0 0.025 0 0.056 0 0.081 0 3.181 2.263 5.838 5.269 6.437-0.55 0.15-1.131 0.231-1.731 0.231-0.425 0-0.831-0.044-1.237-0.119 0.838 2.606 3.263 4.506 6.131 4.563-2.25 1.762-5.075 2.813-8.156 2.813-0.531 0-1.050-0.031-1.569-0.094 2.913 1.869 6.362 2.95 10.069 2.95 12.075 0 18.681-10.006 18.681-18.681 0-0.287-0.006-0.569-0.019-0.85 1.281-0.919 2.394-2.075 3.275-3.394z"></path>
</symbol>
<symbol id="icon-youtube" viewBox="0 0 32 32">
<path d="M31.681 9.6c0 0-0.313-2.206-1.275-3.175-1.219-1.275-2.581-1.281-3.206-1.356-4.475-0.325-11.194-0.325-11.194-0.325h-0.012c0 0-6.719 0-11.194 0.325-0.625 0.075-1.987 0.081-3.206 1.356-0.963 0.969-1.269 3.175-1.269 3.175s-0.319 2.588-0.319 5.181v2.425c0 2.587 0.319 5.181 0.319 5.181s0.313 2.206 1.269 3.175c1.219 1.275 2.819 1.231 3.531 1.369 2.563 0.244 10.881 0.319 10.881 0.319s6.725-0.012 11.2-0.331c0.625-0.075 1.988-0.081 3.206-1.356 0.962-0.969 1.275-3.175 1.275-3.175s0.319-2.587 0.319-5.181v-2.425c-0.006-2.588-0.325-5.181-0.325-5.181zM12.694 20.15v-8.994l8.644 4.513-8.644 4.481z"></path>
</symbol>
<symbol id="icon-linkedin" viewBox="0 0 32 32">
<path d="M12 12h5.535v2.837h0.079c0.77-1.381 2.655-2.837 5.464-2.837 5.842 0 6.922 3.637 6.922 8.367v9.633h-5.769v-8.54c0-2.037-0.042-4.657-3.001-4.657-3.005 0-3.463 2.218-3.463 4.509v8.688h-5.767v-18z"></path>
<path d="M2 12h6v18h-6v-18z"></path>
<path d="M8 7c0 1.657-1.343 3-3 3s-3-1.343-3-3c0-1.657 1.343-3 3-3s3 1.343 3 3z"></path>
</symbol>
</defs>
</svg>
